<svg id="svg" xmlns="http://www.w3.org/2000/svg" xmlns:xlink="http://www.w3.org/1999/xlink" width="400" height="400" viewBox="0, 0, 400,400"><g id="svgg"><path id="path0" d="M173.789 53.696 C 154.420 56.335,126.192 67.993,123.747 74.364 C 122.168 78.479,125.185 80.802,128.558 78.069 C 161.058 51.734,222.275 51.734,254.775 78.069 C 258.149 80.802,261.165 78.479,259.586 74.364 C 257.950 70.100,234.462 58.377,221.667 55.439 C 209.042 52.540,187.916 51.771,173.789 53.696 M111.232 78.248 C 96.492 84.311,76.575 101.623,69.537 114.490 C 60.330 131.320,61.511 156.748,73.146 192.234 C 79.526 211.691,82.884 210.298,107.260 178.081 C 112.943 170.569,115.671 167.450,116.007 168.082 C 116.276 168.587,117.304 173.350,118.291 178.667 C 127.764 229.678,136.973 240.994,178.714 252.922 C 193.146 257.045,208.567 254.762,226.228 245.887 C 249.799 234.041,257.110 221.379,265.042 178.667 C 266.030 173.350,267.057 168.587,267.326 168.082 C 267.662 167.450,270.390 170.569,276.074 178.081 C 300.449 210.298,303.807 211.691,310.187 192.234 C 324.129 149.713,323.215 123.987,307.076 104.684 C 296.601 92.155,271.563 75.235,266.075 76.976 C 263.238 77.877,263.618 81.664,266.612 82.321 C 271.757 83.451,289.214 95.856,298.034 104.648 C 314.962 121.525,317.972 137.708,310.286 170.534 C 308.270 179.147,302.123 198.000,301.332 198.000 C 300.342 198.000,291.950 188.107,284.319 177.943 C 262.390 148.740,252.334 137.381,249.271 138.353 C 245.717 139.481,246.689 141.609,255.696 152.415 C 262.002 159.981,262.589 160.916,262.253 162.862 C 252.852 217.324,246.095 229.615,218.352 242.713 C 200.582 251.102,192.110 251.458,172.347 244.643 C 138.554 232.991,131.145 221.173,121.081 162.862 C 120.745 160.916,121.332 159.981,127.637 152.415 C 136.645 141.609,137.617 139.481,134.063 138.353 C 130.999 137.381,120.943 148.740,99.015 177.943 C 91.383 188.107,82.991 198.000,82.001 198.000 C 81.210 198.000,75.063 179.147,73.047 170.534 C 65.361 137.708,68.366 121.552,85.300 104.639 C 93.832 96.117,109.712 84.732,116.127 82.537 C 119.449 81.400,120.229 79.658,118.286 77.714 C 116.890 76.319,115.705 76.408,111.232 78.248 M211.013 156.500 C 207.592 159.915,207.215 164.000,210.321 164.000 C 212.318 164.000,216.000 159.161,216.000 156.535 C 216.000 154.013,213.521 153.995,211.013 156.500 M167.344 158.833 C 167.358 161.025,168.235 161.924,172.480 164.103 C 175.876 165.846,177.058 161.174,173.898 158.500 C 171.747 156.680,167.330 156.905,167.344 158.833 M216.925 164.653 C 211.549 166.826,211.119 178.684,216.344 180.671 C 221.882 182.776,226.762 180.972,227.915 176.393 C 230.296 166.940,225.073 161.361,216.925 164.653 M161.470 166.032 C 156.220 168.139,157.585 180.695,163.179 181.744 C 171.163 183.242,175.851 176.709,172.714 168.459 C 171.697 165.784,165.449 164.435,161.470 166.032 M189.520 204.013 C 186.331 205.297,187.118 210.863,190.663 212.099 C 192.959 212.899,193.052 213.406,191.639 217.416 C 189.311 224.026,183.661 228.667,177.940 228.667 C 176.365 228.667,175.338 229.027,175.092 229.667 C 172.789 235.669,187.415 232.737,192.404 226.196 L 194.499 223.450 196.416 226.033 C 200.588 231.654,215.260 234.189,214.546 229.166 C 214.358 227.837,213.831 227.617,209.924 227.230 C 202.126 226.459,198.037 222.695,197.501 215.793 C 197.245 212.505,197.334 212.277,199.283 211.198 C 206.015 207.469,197.148 200.944,189.520 204.013 M84.333 211.276 C 76.539 214.919,76.041 226.078,83.442 231.269 C 90.075 235.922,91.333 236.966,91.333 237.817 C 91.333 239.155,82.067 244.834,76.283 247.041 C 62.676 252.234,59.611 265.693,70.744 271.373 L 73.486 272.771 67.535 278.324 C 51.657 293.140,53.769 304.282,75.655 321.149 C 88.358 330.940,91.973 332.096,98.295 328.391 C 108.138 322.622,106.140 313.012,92.981 302.834 C 83.357 295.391,83.685 296.228,88.443 291.282 C 96.280 283.136,96.867 275.521,90.020 270.847 L 87.843 269.360 89.631 268.680 C 91.980 267.787,91.832 267.717,92.323 269.955 C 92.730 271.808,96.527 276.737,99.821 279.688 C 101.759 281.423,101.729 282.376,99.698 283.707 C 98.799 284.296,97.299 286.312,96.365 288.187 C 90.049 300.861,105.504 311.825,116.308 302.336 C 131.118 289.329,136.074 284.411,148.633 270.258 C 154.499 263.647,155.551 259.110,152.475 253.680 C 149.770 248.904,142.625 246.529,137.705 248.770 C 136.152 249.478,135.731 249.272,132.507 246.227 C 127.200 241.213,123.295 239.149,119.661 239.438 L 116.667 239.676 116.667 236.863 C 116.667 229.736,105.451 214.000,100.372 214.000 C 100.178 214.000,98.557 213.100,96.770 212.000 C 92.883 209.609,88.452 209.351,84.333 211.276 M92.767 218.167 C 93.639 218.625,95.248 219.611,96.343 220.357 C 97.438 221.104,99.083 222.091,100.000 222.550 C 110.562 227.843,113.825 241.773,106.137 248.748 C 92.888 260.769,76.214 267.581,72.446 262.514 C 70.139 259.410,71.646 257.826,81.317 253.191 C 96.770 245.784,102.792 239.701,98.333 236.000 C 97.783 235.544,97.333 234.872,97.333 234.508 C 97.333 233.638,93.141 229.824,89.233 227.138 C 85.175 224.349,84.403 223.117,85.494 221.167 C 87.711 217.203,89.516 216.459,92.767 218.167 M270.482 223.385 C 264.178 224.393,253.863 233.471,249.530 241.822 C 247.320 246.081,249.601 255.194,253.195 256.467 C 253.821 256.688,254.783 257.252,255.333 257.719 C 256.571 258.771,261.949 259.358,263.416 258.601 C 264.362 258.113,264.511 258.641,264.596 262.787 C 264.813 273.334,275.838 285.978,284.833 285.996 C 287.212 286.001,287.151 286.283,284.216 288.854 C 276.896 295.266,275.871 303.994,281.830 309.178 C 286.741 313.451,293.609 313.641,298.044 309.627 C 299.335 308.459,301.186 310.463,308.241 320.667 C 313.716 328.585,320.994 330.757,327.754 326.489 C 335.544 321.571,335.176 313.241,326.711 302.913 C 325.770 301.764,323.985 299.593,322.745 298.086 C 319.454 294.088,318.712 293.061,318.688 292.474 C 318.658 291.723,320.933 293.940,323.126 296.799 C 331.857 308.178,333.280 309.737,336.311 311.251 C 346.344 316.262,356.989 306.198,353.218 295.266 C 352.278 292.539,350.096 289.642,342.863 281.519 L 337.389 275.371 339.020 272.519 C 346.112 260.114,330.554 247.203,319.206 256.076 C 316.401 258.269,315.875 258.436,316.445 256.950 C 317.576 254.001,313.890 247.440,309.731 245.003 C 305.946 242.784,298.702 243.075,296.232 245.545 C 295.980 245.798,294.952 243.893,293.947 241.311 C 289.138 228.950,279.886 221.882,270.482 223.385 M280.463 235.034 C 287.400 242.509,288.717 249.487,284.520 256.531 C 280.903 262.604,280.848 263.532,283.913 266.817 C 287.004 270.131,286.788 270.231,292.752 262.723 C 300.860 252.517,301.352 252.000,302.979 252.000 C 308.443 252.000,309.158 255.715,304.736 261.121 C 303.781 262.288,301.950 264.635,300.667 266.337 C 299.383 268.039,297.777 270.084,297.097 270.882 C 296.417 271.680,295.367 272.933,294.763 273.667 C 288.852 280.853,284.475 280.277,276.723 271.291 C 270.892 264.534,270.883 262.379,276.650 253.333 C 279.115 249.466,279.118 247.640,276.669 243.777 C 273.433 238.675,271.202 239.083,267.033 245.536 C 263.757 250.608,261.216 251.778,258.146 249.627 C 256.350 248.370,256.697 246.011,259.101 243.116 C 259.962 242.079,260.667 240.954,260.667 240.615 C 260.667 239.713,267.922 232.666,269.581 231.957 C 272.917 230.532,277.483 231.823,280.463 235.034 M125.175 249.833 C 129.243 253.671,129.716 254.050,133.132 256.206 L 135.827 257.907 138.211 256.287 C 140.997 254.394,142.750 254.254,145.023 255.743 C 146.976 257.023,147.390 261.903,145.667 263.333 C 145.117 263.790,144.667 264.460,144.667 264.823 C 144.667 266.405,126.418 284.288,115.181 293.718 C 107.849 299.870,105.399 300.573,102.572 297.335 C 99.471 293.783,100.335 291.517,107.462 284.521 C 111.487 280.569,111.675 281.345,104.957 274.146 C 98.659 267.396,97.746 264.649,101.229 262.923 C 103.731 261.682,105.466 262.636,112.286 269.000 C 115.822 272.300,119.019 275.000,119.390 275.000 C 120.478 275.000,126.428 269.830,127.631 267.840 C 128.869 265.790,129.767 267.060,119.833 256.809 C 112.253 248.986,117.297 242.400,125.175 249.833 M219.314 262.062 C 216.067 263.946,214.002 267.170,213.990 270.375 C 213.976 273.850,213.007 275.448,212.394 273.006 C 211.630 269.962,206.268 264.871,202.095 263.228 C 195.998 260.827,175.592 260.566,171.333 262.835 C 161.147 268.261,163.135 282.844,174.310 284.663 C 176.444 285.010,178.459 285.129,178.786 284.926 C 179.114 284.723,181.622 284.767,184.358 285.024 L 189.333 285.490 189.167 296.946 C 188.972 310.349,189.547 311.957,195.631 315.011 C 205.000 319.715,213.333 313.077,213.333 300.910 C 213.333 293.365,213.834 295.162,214.287 304.335 C 214.504 308.734,214.855 314.315,215.066 316.736 L 215.449 321.139 203.225 321.567 C 186.977 322.137,186.447 322.006,185.940 317.309 C 185.283 311.234,184.054 304.958,183.055 302.582 C 179.356 293.786,167.225 293.259,162.290 301.680 C 160.391 304.921,160.413 304.294,161.740 317.542 L 162.128 321.418 159.775 320.976 C 156.792 320.417,151.658 323.038,149.577 326.183 C 144.456 333.925,149.961 343.997,159.319 344.003 C 161.710 344.004,168.617 344.474,174.667 345.048 C 180.974 345.645,192.440 346.098,201.545 346.108 C 212.953 346.122,217.490 346.344,217.660 346.897 C 217.790 347.320,218.075 348.751,218.295 350.076 C 219.366 356.556,228.493 362.049,233.842 359.434 C 241.171 355.852,242.617 353.643,242.637 346.000 C 242.652 339.979,241.101 323.789,240.322 321.833 C 240.019 321.074,240.173 320.650,240.762 320.620 C 249.311 320.176,252.151 319.508,254.809 317.317 C 266.290 307.853,256.563 293.035,241.211 296.602 L 238.756 297.173 238.395 293.086 C 238.197 290.839,237.861 286.150,237.650 282.667 C 236.855 269.581,236.420 267.268,234.275 264.719 C 230.764 260.547,223.998 259.345,219.314 262.062 M331.124 262.116 C 333.260 264.124,333.054 266.229,330.433 269.165 C 329.063 270.699,328.042 272.668,327.794 274.256 C 327.355 277.057,327.005 276.505,334.124 284.262 C 345.522 296.683,347.488 300.558,343.663 303.064 C 341.975 304.170,338.000 303.397,338.000 301.963 C 338.000 301.253,330.818 292.325,327.841 289.333 C 320.023 281.477,317.066 281.010,311.459 286.745 C 307.591 290.702,308.803 294.636,316.899 304.392 C 325.118 314.296,326.085 316.356,323.837 319.167 C 321.475 322.119,318.388 319.925,311.528 310.421 C 304.914 301.258,299.578 297.755,296.667 300.667 C 295.933 301.400,294.930 302.000,294.437 302.000 C 293.943 302.000,292.997 302.600,292.333 303.333 C 290.883 304.936,289.470 305.022,287.482 303.629 C 285.173 302.012,285.554 299.334,288.500 296.473 C 293.303 291.809,297.771 287.647,300.707 285.101 C 306.251 280.296,315.455 271.679,320.931 266.167 C 326.862 260.196,328.421 259.577,331.124 262.116 M228.345 269.591 C 228.958 270.527,229.532 273.341,229.738 276.424 C 231.619 304.530,230.877 303.010,242.948 303.473 C 250.840 303.776,252.000 304.359,252.000 308.024 C 252.000 311.017,250.129 311.994,242.913 312.768 C 233.931 313.733,234.667 312.000,234.667 332.205 C 234.667 349.128,234.629 349.621,233.217 351.124 C 229.671 354.898,226.074 352.171,225.395 345.191 C 224.718 338.241,224.803 338.262,199.000 338.571 C 194.233 338.628,188.383 338.573,186.000 338.449 C 183.617 338.324,176.717 337.986,170.667 337.695 C 156.582 337.020,153.130 335.513,155.465 331.059 C 156.580 328.931,157.930 328.422,162.941 328.239 C 165.907 328.130,167.897 327.722,168.526 327.093 C 170.058 325.561,170.395 317.457,169.085 313.613 C 166.888 307.165,168.423 303.028,172.852 303.461 C 175.764 303.745,178.667 311.448,178.667 318.889 C 178.667 320.190,178.967 321.440,179.333 321.667 C 179.700 321.893,180.009 322.886,180.021 323.873 C 180.079 328.842,191.538 330.769,210.000 328.914 C 219.988 327.911,221.705 327.326,222.208 324.757 C 222.739 322.045,222.084 291.483,221.266 280.746 C 220.391 269.273,220.740 268.000,224.764 268.000 C 226.704 268.000,227.548 268.375,228.345 269.591 M201.291 270.674 C 206.268 273.467,207.556 276.976,206.692 285.393 C 206.312 289.105,206.000 294.519,206.000 297.425 C 206.000 305.860,203.138 310.215,199.038 308.020 C 196.303 306.557,195.717 304.063,196.563 297.475 C 197.590 289.466,197.766 279.499,196.895 278.628 C 196.466 278.199,191.971 277.870,185.480 277.793 C 171.945 277.633,168.297 275.471,172.998 270.398 L 174.663 268.602 186.498 268.808 C 197.674 269.003,198.498 269.107,201.291 270.674 M85.697 276.970 C 88.706 279.979,87.410 282.235,77.021 292.073 L 73.043 295.841 75.539 298.888 C 77.847 301.704,81.306 304.667,82.287 304.667 C 82.516 304.667,83.704 305.579,84.929 306.693 C 86.155 307.808,88.493 309.567,90.125 310.603 C 95.536 314.034,97.401 318.013,94.897 320.781 C 92.477 323.455,90.930 322.672,74.807 310.621 C 61.409 300.606,61.109 295.474,73.235 283.643 C 82.985 274.130,82.902 274.174,85.697 276.970 " stroke="none" fill="#000000" fill-rule="evenodd"></path></g></svg>